<svg width="218" height="87" viewBox="0 0 218 87" fill="none" xmlns="http://www.w3.org/2000/svg">
<g clip-path="url(#clip0_0_4927)">
<g filter="url(#filter0_d_0_4927)">
<rect width="218" height="87" rx="5" fill="#FBFCFE"/>
</g>
<g clip-path="url(#clip1_0_4927)">
<path d="M16.81 26V18.77H19.47C19.9967 18.77 20.4683 18.8617 20.885 19.045C21.3017 19.225 21.63 19.4917 21.87 19.845C22.1133 20.1983 22.235 20.63 22.235 21.14C22.235 21.62 22.1283 22.03 21.915 22.37C21.7017 22.71 21.4017 22.97 21.015 23.15C20.6317 23.33 20.18 23.42 19.66 23.42H18.28V26H16.81ZM18.265 22.29H19.62C19.9867 22.29 20.2867 22.1733 20.52 21.94C20.7533 21.7033 20.87 21.4117 20.87 21.065C20.87 20.705 20.7467 20.42 20.5 20.21C20.2533 19.9967 19.9533 19.89 19.6 19.89H18.265V22.29ZM24.5117 26.1C24.1817 26.1 23.8851 26.0383 23.6217 25.915C23.3584 25.7917 23.1501 25.6133 22.9967 25.38C22.8434 25.1433 22.7667 24.8567 22.7667 24.52C22.7667 23.9533 22.9784 23.5233 23.4017 23.23C23.8251 22.9333 24.4934 22.78 25.4067 22.77L26.0517 22.76V22.45C26.0517 22.2133 25.9817 22.0317 25.8417 21.905C25.7051 21.775 25.4917 21.7117 25.2017 21.715C24.9884 21.7183 24.7851 21.7683 24.5917 21.865C24.4017 21.9617 24.2717 22.13 24.2017 22.37H22.9867C23.0067 21.9967 23.1151 21.69 23.3117 21.45C23.5084 21.2067 23.7751 21.0267 24.1117 20.91C24.4517 20.79 24.8367 20.73 25.2667 20.73C25.7967 20.73 26.2217 20.7967 26.5417 20.93C26.8617 21.06 27.0934 21.2483 27.2367 21.495C27.3801 21.7383 27.4517 22.0283 27.4517 22.365V26H26.2317L26.1117 25.11C25.9351 25.4833 25.7134 25.7417 25.4467 25.885C25.1834 26.0283 24.8717 26.1 24.5117 26.1ZM25.0017 25.14C25.1351 25.14 25.2634 25.1167 25.3867 25.07C25.5134 25.02 25.6251 24.955 25.7217 24.875C25.8217 24.7917 25.9017 24.6983 25.9617 24.595C26.0217 24.4917 26.0517 24.385 26.0517 24.275V23.51L25.5267 23.52C25.2834 23.5233 25.0567 23.5533 24.8467 23.61C24.6367 23.6633 24.4667 23.7517 24.3367 23.875C24.2101 23.9983 24.1467 24.165 24.1467 24.375C24.1467 24.615 24.2301 24.8033 24.3967 24.94C24.5634 25.0733 24.7651 25.14 25.0017 25.14ZM29.3636 27.65C29.0103 27.65 28.7603 27.62 28.6136 27.56C28.4703 27.5033 28.3986 27.475 28.3986 27.475V26.545L28.9086 26.565C29.1319 26.5783 29.3119 26.5667 29.4486 26.53C29.5853 26.4967 29.6886 26.4517 29.7586 26.395C29.8319 26.3383 29.8836 26.2783 29.9136 26.215C29.9436 26.155 29.9653 26.1067 29.9786 26.07L30.0736 25.785L28.0636 20.83H29.5086L30.7486 24.2L32.0036 20.83H33.4286L31.3336 26.03C31.1536 26.47 30.9636 26.8067 30.7636 27.04C30.5636 27.2733 30.3469 27.4333 30.1136 27.52C29.8836 27.6067 29.6336 27.65 29.3636 27.65ZM33.2281 26L35.8181 18.77H37.3581L39.9431 26H38.4881L37.8981 24.325H35.2981L34.6931 26H33.2281ZM35.6231 23.05H37.5481L36.5931 20.18L35.6231 23.05ZM41.0288 26V18.77H43.6888C44.2154 18.77 44.6871 18.8617 45.1038 19.045C45.5204 19.225 45.8488 19.4917 46.0888 19.845C46.3321 20.1983 46.4538 20.63 46.4538 21.14C46.4538 21.62 46.3471 22.03 46.1338 22.37C45.9204 22.71 45.6204 22.97 45.2338 23.15C44.8504 23.33 44.3988 23.42 43.8788 23.42H42.4988V26H41.0288ZM42.4838 22.29H43.8388C44.2054 22.29 44.5054 22.1733 44.7388 21.94C44.9721 21.7033 45.0888 21.4117 45.0888 21.065C45.0888 20.705 44.9654 20.42 44.7188 20.21C44.4721 19.9967 44.1721 19.89 43.8188 19.89H42.4838V22.29ZM47.5522 18.77H49.0072V26H47.5522V18.77Z" fill="#BA4270"/>
<path opacity="0.5" d="M163.609 24.295C163.609 24.6783 163.566 25.005 163.479 25.275C163.392 25.545 163.237 25.75 163.014 25.89C162.794 26.03 162.481 26.1 162.074 26.1C161.817 26.1 161.576 26.07 161.349 26.01C161.126 25.95 160.977 25.905 160.904 25.875L160.969 24.99C161.072 25.0267 161.191 25.0733 161.324 25.13C161.461 25.1833 161.629 25.21 161.829 25.21C162.156 25.21 162.379 25.12 162.499 24.94C162.622 24.76 162.684 24.4567 162.684 24.03V18.77H163.609V24.295ZM167.041 26.1C166.771 26.0967 166.516 26.0583 166.276 25.985C166.039 25.9083 165.829 25.7967 165.646 25.65C165.462 25.5033 165.317 25.3217 165.211 25.105C165.107 24.885 165.056 24.63 165.056 24.34V20.83H165.981V24.245C165.981 24.5817 166.084 24.855 166.291 25.065C166.501 25.275 166.816 25.38 167.236 25.38C167.616 25.38 167.921 25.2817 168.151 25.085C168.384 24.885 168.501 24.5883 168.501 24.195V20.83H169.421V26H168.686L168.591 25.01C168.527 25.27 168.419 25.48 168.266 25.64C168.116 25.8 167.934 25.9183 167.721 25.995C167.511 26.0683 167.284 26.1033 167.041 26.1ZM172.698 26.1C172.338 26.1 172.003 26.045 171.693 25.935C171.387 25.8217 171.132 25.6467 170.928 25.41C170.725 25.17 170.597 24.865 170.543 24.495H171.383C171.43 24.6983 171.513 24.8683 171.633 25.005C171.757 25.1383 171.91 25.24 172.093 25.31C172.277 25.3767 172.477 25.41 172.693 25.41C173.04 25.41 173.32 25.345 173.533 25.215C173.747 25.085 173.853 24.885 173.853 24.615C173.853 24.425 173.797 24.2733 173.683 24.16C173.573 24.0433 173.402 23.9583 173.168 23.905L172.098 23.64C171.682 23.54 171.348 23.3833 171.098 23.17C170.848 22.9567 170.723 22.6583 170.723 22.275C170.72 21.9717 170.792 21.705 170.938 21.475C171.085 21.245 171.305 21.0633 171.598 20.93C171.892 20.7967 172.257 20.73 172.693 20.73C173.253 20.73 173.705 20.8567 174.048 21.11C174.395 21.36 174.575 21.7283 174.588 22.215H173.773C173.74 21.9683 173.628 21.7733 173.438 21.63C173.252 21.4833 173 21.41 172.683 21.41C172.353 21.41 172.085 21.4767 171.878 21.61C171.672 21.74 171.568 21.9433 171.568 22.22C171.568 22.4033 171.642 22.5483 171.788 22.655C171.935 22.7583 172.152 22.845 172.438 22.915L173.473 23.175C173.713 23.2383 173.91 23.3217 174.063 23.425C174.22 23.5283 174.343 23.6433 174.433 23.77C174.527 23.8967 174.592 24.03 174.628 24.17C174.668 24.3067 174.688 24.4383 174.688 24.565C174.688 24.8817 174.608 25.155 174.448 25.385C174.292 25.6117 174.065 25.7883 173.768 25.915C173.475 26.0383 173.118 26.1 172.698 26.1ZM178.5 21.505H177.335V24.72C177.335 24.9033 177.353 25.0383 177.39 25.125C177.43 25.2083 177.495 25.2617 177.585 25.285C177.678 25.3083 177.805 25.32 177.965 25.32H178.53V25.94C178.466 25.9633 178.37 25.9833 178.24 26C178.113 26.0167 177.955 26.025 177.765 26.025C177.408 26.025 177.131 25.9767 176.935 25.88C176.738 25.7833 176.6 25.64 176.52 25.45C176.443 25.26 176.405 25.0267 176.405 24.75V21.505H175.565V20.83H176.43L176.655 19.325H177.335V20.825H178.5V21.505ZM187.028 18.77H187.953V26H187.128L183.248 20.3V26H182.323V18.77H183.208L187.028 24.39V18.77ZM191.659 26.1C191.182 26.1 190.765 25.9983 190.409 25.795C190.052 25.5883 189.775 25.2867 189.579 24.89C189.382 24.4933 189.284 24.0083 189.284 23.435C189.284 22.895 189.375 22.4217 189.559 22.015C189.742 21.6083 190.01 21.2933 190.364 21.07C190.72 20.8433 191.152 20.73 191.659 20.73C192.135 20.73 192.549 20.835 192.899 21.045C193.252 21.2517 193.525 21.5567 193.719 21.96C193.912 22.3633 194.009 22.855 194.009 23.435C194.009 23.9617 193.919 24.425 193.739 24.825C193.562 25.225 193.299 25.5383 192.949 25.765C192.602 25.9883 192.172 26.1 191.659 26.1ZM191.659 25.37C191.969 25.37 192.23 25.2917 192.444 25.135C192.657 24.9783 192.819 24.7533 192.929 24.46C193.039 24.1667 193.094 23.8183 193.094 23.415C193.094 23.045 193.045 22.7133 192.949 22.42C192.852 22.1233 192.697 21.8883 192.484 21.715C192.274 21.5417 191.999 21.455 191.659 21.455C191.345 21.455 191.08 21.5333 190.864 21.69C190.647 21.8433 190.482 22.0667 190.369 22.36C190.259 22.6533 190.204 23.005 190.204 23.415C190.204 23.7783 190.254 24.1083 190.354 24.405C190.454 24.7017 190.61 24.9367 190.824 25.11C191.037 25.2833 191.315 25.37 191.659 25.37ZM201.833 20.83L200.268 26H199.358L198.178 22.185L197.058 26H196.153L194.558 20.83H195.413L196.598 24.805H196.678L197.843 20.83H198.543L199.753 24.795H199.833L200.968 20.83H201.833Z" fill="#36536B"/>
</g>
<path d="M16.23 35.62V34.77H21.7V35.62H19.495V42H18.565V35.62H16.23ZM22.7025 42V34.57H23.6025V37.59C23.7325 37.3767 23.9308 37.1867 24.1975 37.02C24.4642 36.85 24.8042 36.765 25.2175 36.765C25.5542 36.765 25.8592 36.8283 26.1325 36.955C26.4058 37.0783 26.6225 37.255 26.7825 37.485C26.9425 37.715 27.0225 37.9883 27.0225 38.305V42H26.0975V38.49C26.0975 38.18 25.9908 37.9417 25.7775 37.775C25.5675 37.605 25.2925 37.52 24.9525 37.52C24.7192 37.52 24.5008 37.5583 24.2975 37.635C24.0975 37.7083 23.9342 37.8217 23.8075 37.975C23.6842 38.125 23.6225 38.3167 23.6225 38.55V42H22.7025ZM29.1242 39.63C29.1242 39.9567 29.1776 40.2533 29.2842 40.52C29.3942 40.7833 29.5592 40.9933 29.7792 41.15C30.0026 41.3067 30.2809 41.385 30.6142 41.385C30.9442 41.385 31.2276 41.3083 31.4642 41.155C31.7042 41.0017 31.8576 40.78 31.9242 40.49H32.7992C32.7359 40.84 32.5959 41.135 32.3792 41.375C32.1626 41.615 31.9009 41.7967 31.5942 41.92C31.2876 42.04 30.9676 42.1 30.6342 42.1C30.1509 42.1 29.7259 41.995 29.3592 41.785C28.9926 41.575 28.7059 41.2733 28.4992 40.88C28.2926 40.4867 28.1892 40.015 28.1892 39.465C28.1892 38.9217 28.2826 38.445 28.4692 38.035C28.6559 37.625 28.9259 37.305 29.2792 37.075C29.6359 36.845 30.0642 36.73 30.5642 36.73C31.2942 36.73 31.8542 36.9617 32.2442 37.425C32.6342 37.885 32.8292 38.5067 32.8292 39.29V39.63H29.1242ZM29.1292 39.005H31.9392C31.9392 38.5617 31.8259 38.1883 31.5992 37.885C31.3726 37.5817 31.0259 37.43 30.5592 37.43C30.2359 37.43 29.9676 37.5083 29.7542 37.665C29.5409 37.8183 29.3826 38.0167 29.2792 38.26C29.1759 38.5 29.1259 38.7483 29.1292 39.005ZM36.3353 43.61V36.83H37.2553L37.2653 37.73C37.3453 37.59 37.457 37.4433 37.6003 37.29C37.747 37.1333 37.932 37.0017 38.1553 36.895C38.3786 36.785 38.6486 36.73 38.9653 36.73C39.582 36.73 40.0853 36.9433 40.4753 37.37C40.8653 37.7967 41.0603 38.455 41.0603 39.345C41.0603 40.2317 40.8686 40.9133 40.4853 41.39C40.102 41.8633 39.5703 42.1 38.8903 42.1C38.5836 42.1 38.322 42.045 38.1053 41.935C37.892 41.8217 37.717 41.685 37.5803 41.525C37.4436 41.365 37.3386 41.2117 37.2653 41.065V43.61H36.3353ZM38.7153 41.38C39.142 41.38 39.4903 41.2183 39.7603 40.895C40.0303 40.5683 40.1653 40.0617 40.1653 39.375C40.1653 38.7883 40.042 38.3217 39.7953 37.975C39.5486 37.625 39.1886 37.45 38.7153 37.45C38.2353 37.45 37.872 37.6283 37.6253 37.985C37.3786 38.3417 37.2553 38.805 37.2553 39.375C37.2553 39.745 37.3103 40.0817 37.4203 40.385C37.5303 40.6883 37.6936 40.93 37.9103 41.11C38.127 41.29 38.3953 41.38 38.7153 41.38ZM43.6345 42.1C43.1311 42.1 42.7211 41.9683 42.4045 41.705C42.0878 41.4417 41.9295 41.0733 41.9295 40.6C41.9295 40.0267 42.1295 39.6 42.5295 39.32C42.9295 39.04 43.5711 38.89 44.4545 38.87L45.3795 38.845V38.44C45.3795 38.1233 45.2828 37.8733 45.0895 37.69C44.8995 37.5033 44.6061 37.41 44.2095 37.41C43.9128 37.4133 43.6511 37.485 43.4245 37.625C43.1978 37.7617 43.0528 37.9833 42.9895 38.29H42.1745C42.2011 37.7867 42.3978 37.4017 42.7645 37.135C43.1311 36.865 43.6278 36.73 44.2545 36.73C44.9278 36.73 45.4311 36.8717 45.7645 37.155C46.1011 37.4383 46.2695 37.85 46.2695 38.39V42H45.4795L45.4145 41.03C45.2111 41.4333 44.9561 41.7133 44.6495 41.87C44.3428 42.0233 44.0045 42.1 43.6345 42.1ZM43.9145 41.435C44.1445 41.435 44.3711 41.38 44.5945 41.27C44.8211 41.16 45.0078 41.02 45.1545 40.85C45.3011 40.6767 45.3761 40.4933 45.3795 40.3V39.415L44.6095 39.43C44.0161 39.44 43.5711 39.5283 43.2745 39.695C42.9778 39.8583 42.8295 40.13 42.8295 40.51C42.8295 40.8033 42.9295 41.0317 43.1295 41.195C43.3328 41.355 43.5945 41.435 43.9145 41.435ZM48.193 43.65C47.8896 43.65 47.6813 43.6283 47.568 43.585C47.4546 43.5417 47.398 43.52 47.398 43.52V42.92L47.923 42.93C48.1796 42.94 48.378 42.915 48.518 42.855C48.6613 42.795 48.7663 42.72 48.833 42.63C48.8996 42.54 48.9513 42.4517 48.988 42.365L49.168 41.875L47.148 36.83H48.083L49.608 40.82L51.123 36.83H52.028L49.848 42.39C49.648 42.8833 49.4113 43.2167 49.138 43.39C48.8646 43.5633 48.5496 43.65 48.193 43.65ZM53.015 42V36.83H53.905V37.58C54.0483 37.35 54.2433 37.1517 54.49 36.985C54.74 36.815 55.0667 36.73 55.47 36.73C55.7533 36.73 56.0383 36.8017 56.325 36.945C56.6117 37.0883 56.8233 37.2983 56.96 37.575C57.12 37.3217 57.3367 37.1183 57.61 36.965C57.8833 36.8083 58.1917 36.73 58.535 36.73C58.715 36.73 58.9033 36.7583 59.1 36.815C59.2967 36.8683 59.48 36.965 59.65 37.105C59.82 37.2417 59.9567 37.4333 60.06 37.68C60.1667 37.9233 60.22 38.2367 60.22 38.62V42H59.29V38.71C59.29 38.3967 59.24 38.1533 59.14 37.98C59.04 37.8067 58.9083 37.6867 58.745 37.62C58.585 37.55 58.4133 37.515 58.23 37.515C58.07 37.515 57.9 37.5467 57.72 37.61C57.54 37.6733 57.3867 37.78 57.26 37.93C57.1333 38.08 57.07 38.285 57.07 38.545V42H56.15V38.44C56.15 38.2367 56.095 38.0667 55.985 37.93C55.8783 37.79 55.7433 37.6867 55.58 37.62C55.42 37.55 55.26 37.515 55.1 37.515C54.9233 37.515 54.745 37.5517 54.565 37.625C54.3883 37.695 54.2383 37.805 54.115 37.955C53.995 38.105 53.935 38.3017 53.935 38.545V42H53.015ZM62.3273 39.63C62.3273 39.9567 62.3807 40.2533 62.4873 40.52C62.5973 40.7833 62.7623 40.9933 62.9823 41.15C63.2057 41.3067 63.484 41.385 63.8173 41.385C64.1473 41.385 64.4307 41.3083 64.6673 41.155C64.9073 41.0017 65.0607 40.78 65.1273 40.49H66.0023C65.939 40.84 65.799 41.135 65.5823 41.375C65.3657 41.615 65.104 41.7967 64.7973 41.92C64.4907 42.04 64.1707 42.1 63.8373 42.1C63.354 42.1 62.929 41.995 62.5623 41.785C62.1957 41.575 61.909 41.2733 61.7023 40.88C61.4957 40.4867 61.3923 40.015 61.3923 39.465C61.3923 38.9217 61.4857 38.445 61.6723 38.035C61.859 37.625 62.129 37.305 62.4823 37.075C62.839 36.845 63.2673 36.73 63.7673 36.73C64.4973 36.73 65.0573 36.9617 65.4473 37.425C65.8373 37.885 66.0323 38.5067 66.0323 39.29V39.63H62.3273ZM62.3323 39.005H65.1423C65.1423 38.5617 65.029 38.1883 64.8023 37.885C64.5757 37.5817 64.229 37.43 63.7623 37.43C63.439 37.43 63.1707 37.5083 62.9573 37.665C62.744 37.8183 62.5857 38.0167 62.4823 38.26C62.379 38.5 62.329 38.7483 62.3323 39.005ZM67.3021 42V36.83H68.1971V37.58C68.3238 37.3633 68.5221 37.1717 68.7921 37.005C69.0621 36.8383 69.4038 36.755 69.8171 36.755C70.1438 36.755 70.4438 36.82 70.7171 36.95C70.9938 37.08 71.2138 37.2833 71.3771 37.56C71.5438 37.8333 71.6271 38.1867 71.6271 38.62V42H70.7021V38.71C70.7021 38.3067 70.5954 38.0083 70.3821 37.815C70.1721 37.6183 69.8988 37.52 69.5621 37.52C69.3288 37.52 69.1104 37.5583 68.9071 37.635C68.7038 37.7083 68.5388 37.8217 68.4121 37.975C68.2854 38.125 68.2221 38.315 68.2221 38.545V42H67.3021ZM75.4561 37.505H74.2911V40.72C74.2911 40.9967 74.3344 41.1667 74.4211 41.23C74.5111 41.29 74.6778 41.32 74.9211 41.32H75.4861V41.94C75.4194 41.9633 75.3228 41.9833 75.1961 42C75.0694 42.0167 74.9111 42.025 74.7211 42.025C74.1844 42.025 73.8228 41.9167 73.6361 41.7C73.4528 41.4833 73.3611 41.1667 73.3611 40.75V37.505H72.5211V36.83H73.3861L73.6111 35.325H74.2911V36.825H75.4561V37.505ZM79.0892 42V34.57H79.9892V37.59C80.1192 37.3767 80.3176 37.1867 80.5842 37.02C80.8509 36.85 81.1909 36.765 81.6042 36.765C81.9409 36.765 82.2459 36.8283 82.5192 36.955C82.7926 37.0783 83.0092 37.255 83.1692 37.485C83.3292 37.715 83.4092 37.9883 83.4092 38.305V42H82.4842V38.49C82.4842 38.18 82.3776 37.9417 82.1642 37.775C81.9542 37.605 81.6792 37.52 81.3392 37.52C81.1059 37.52 80.8876 37.5583 80.6842 37.635C80.4842 37.7083 80.3209 37.8217 80.1942 37.975C80.0709 38.125 80.0092 38.3167 80.0092 38.55V42H79.0892ZM86.2614 42.1C85.7581 42.1 85.3481 41.9683 85.0314 41.705C84.7147 41.4417 84.5564 41.0733 84.5564 40.6C84.5564 40.0267 84.7564 39.6 85.1564 39.32C85.5564 39.04 86.1981 38.89 87.0814 38.87L88.0064 38.845V38.44C88.0064 38.1233 87.9097 37.8733 87.7164 37.69C87.5264 37.5033 87.2331 37.41 86.8364 37.41C86.5397 37.4133 86.2781 37.485 86.0514 37.625C85.8247 37.7617 85.6797 37.9833 85.6164 38.29H84.8014C84.8281 37.7867 85.0247 37.4017 85.3914 37.135C85.7581 36.865 86.2547 36.73 86.8814 36.73C87.5547 36.73 88.0581 36.8717 88.3914 37.155C88.7281 37.4383 88.8964 37.85 88.8964 38.39V42H88.1064L88.0414 41.03C87.8381 41.4333 87.5831 41.7133 87.2764 41.87C86.9697 42.0233 86.6314 42.1 86.2614 42.1ZM86.5414 41.435C86.7714 41.435 86.9981 41.38 87.2214 41.27C87.4481 41.16 87.6347 41.02 87.7814 40.85C87.9281 40.6767 88.0031 40.4933 88.0064 40.3V39.415L87.2364 39.43C86.6431 39.44 86.1981 39.5283 85.9014 39.695C85.6047 39.8583 85.4564 40.13 85.4564 40.51C85.4564 40.8033 85.5564 41.0317 85.7564 41.195C85.9597 41.355 86.2214 41.435 86.5414 41.435ZM92.223 42.1C91.8597 42.1 91.5247 42.0433 91.218 41.93C90.9114 41.8167 90.6547 41.6433 90.448 41.41C90.2447 41.1733 90.118 40.8683 90.068 40.495H90.908C90.9747 40.7983 91.1264 41.0267 91.363 41.18C91.603 41.3333 91.888 41.41 92.218 41.41C92.5647 41.41 92.8447 41.345 93.058 41.215C93.2714 41.085 93.378 40.885 93.378 40.615C93.378 40.2517 93.1497 40.015 92.693 39.905L91.623 39.64C91.203 39.54 90.868 39.3833 90.618 39.17C90.3714 38.9567 90.248 38.6583 90.248 38.275C90.2447 37.8217 90.408 37.4517 90.738 37.165C91.068 36.875 91.5614 36.73 92.218 36.73C92.778 36.73 93.2297 36.8567 93.573 37.11C93.9197 37.3633 94.0997 37.7317 94.113 38.215H93.298C93.2614 37.9683 93.1497 37.7733 92.963 37.63C92.7764 37.4833 92.5247 37.41 92.208 37.41C91.878 37.41 91.6097 37.4767 91.403 37.61C91.1964 37.74 91.093 37.9433 91.093 38.22C91.093 38.4033 91.1664 38.5483 91.313 38.655C91.4597 38.7583 91.6764 38.845 91.963 38.915L92.998 39.175C93.3147 39.2583 93.5614 39.3767 93.738 39.53C93.9147 39.6833 94.038 39.8517 94.108 40.035C94.178 40.2183 94.213 40.395 94.213 40.565C94.213 41.0417 94.038 41.4167 93.688 41.69C93.338 41.9633 92.8497 42.1 92.223 42.1ZM100.326 42.1C99.9225 42.1 99.6009 42.0317 99.3609 41.895C99.1209 41.7583 98.9409 41.5983 98.8209 41.415C98.7009 41.2317 98.6192 41.0733 98.5759 40.94L98.4759 42H97.7709V34.57H98.7009V37.65C98.7575 37.5367 98.8559 37.4083 98.9959 37.265C99.1359 37.1217 99.3209 36.9967 99.5509 36.89C99.7842 36.7833 100.066 36.73 100.396 36.73C101.043 36.73 101.556 36.955 101.936 37.405C102.319 37.855 102.511 38.5183 102.511 39.395C102.511 40.2083 102.328 40.8633 101.961 41.36C101.598 41.8533 101.053 42.1 100.326 42.1ZM100.161 41.39C100.578 41.39 100.918 41.2283 101.181 40.905C101.448 40.5783 101.581 40.06 101.581 39.35C101.581 38.7467 101.458 38.28 101.211 37.95C100.968 37.6167 100.611 37.45 100.141 37.45C99.6275 37.45 99.2609 37.6167 99.0409 37.95C98.8209 38.28 98.7075 38.7467 98.7009 39.35C98.7009 40.0733 98.8125 40.595 99.0359 40.915C99.2625 41.2317 99.6375 41.39 100.161 41.39ZM104.378 39.63C104.378 39.9567 104.431 40.2533 104.538 40.52C104.648 40.7833 104.813 40.9933 105.033 41.15C105.256 41.3067 105.535 41.385 105.868 41.385C106.198 41.385 106.481 41.3083 106.718 41.155C106.958 41.0017 107.111 40.78 107.178 40.49H108.053C107.99 40.84 107.85 41.135 107.633 41.375C107.416 41.615 107.155 41.7967 106.848 41.92C106.541 42.04 106.221 42.1 105.888 42.1C105.405 42.1 104.98 41.995 104.613 41.785C104.246 41.575 103.96 41.2733 103.753 40.88C103.546 40.4867 103.443 40.015 103.443 39.465C103.443 38.9217 103.536 38.445 103.723 38.035C103.91 37.625 104.18 37.305 104.533 37.075C104.89 36.845 105.318 36.73 105.818 36.73C106.548 36.73 107.108 36.9617 107.498 37.425C107.888 37.885 108.083 38.5067 108.083 39.29V39.63H104.378ZM104.383 39.005H107.193C107.193 38.5617 107.08 38.1883 106.853 37.885C106.626 37.5817 106.28 37.43 105.813 37.43C105.49 37.43 105.221 37.5083 105.008 37.665C104.795 37.8183 104.636 38.0167 104.533 38.26C104.43 38.5 104.38 38.7483 104.383 39.005ZM110.013 39.63C110.013 39.9567 110.066 40.2533 110.173 40.52C110.283 40.7833 110.448 40.9933 110.668 41.15C110.891 41.3067 111.17 41.385 111.503 41.385C111.833 41.385 112.116 41.3083 112.353 41.155C112.593 41.0017 112.746 40.78 112.813 40.49H113.688C113.625 40.84 113.485 41.135 113.268 41.375C113.051 41.615 112.79 41.7967 112.483 41.92C112.176 42.04 111.856 42.1 111.523 42.1C111.04 42.1 110.615 41.995 110.248 41.785C109.881 41.575 109.595 41.2733 109.388 40.88C109.181 40.4867 109.078 40.015 109.078 39.465C109.078 38.9217 109.171 38.445 109.358 38.035C109.545 37.625 109.815 37.305 110.168 37.075C110.525 36.845 110.953 36.73 111.453 36.73C112.183 36.73 112.743 36.9617 113.133 37.425C113.523 37.885 113.718 38.5067 113.718 39.29V39.63H110.013ZM110.018 39.005H112.828C112.828 38.5617 112.715 38.1883 112.488 37.885C112.261 37.5817 111.915 37.43 111.448 37.43C111.125 37.43 110.856 37.5083 110.643 37.665C110.43 37.8183 110.271 38.0167 110.168 38.26C110.065 38.5 110.015 38.7483 110.018 39.005ZM114.988 42V36.83H115.883V37.58C116.009 37.3633 116.208 37.1717 116.478 37.005C116.748 36.8383 117.089 36.755 117.503 36.755C117.829 36.755 118.129 36.82 118.403 36.95C118.679 37.08 118.899 37.2833 119.063 37.56C119.229 37.8333 119.313 38.1867 119.313 38.62V42H118.388V38.71C118.388 38.3067 118.281 38.0083 118.068 37.815C117.858 37.6183 117.584 37.52 117.248 37.52C117.014 37.52 116.796 37.5583 116.593 37.635C116.389 37.7083 116.224 37.8217 116.098 37.975C115.971 38.125 115.908 38.315 115.908 38.545V42H114.988ZM123.064 43.61V36.83H123.984L123.994 37.73C124.074 37.59 124.185 37.4433 124.329 37.29C124.475 37.1333 124.66 37.0017 124.884 36.895C125.107 36.785 125.377 36.73 125.694 36.73C126.31 36.73 126.814 36.9433 127.204 37.37C127.594 37.7967 127.789 38.455 127.789 39.345C127.789 40.2317 127.597 40.9133 127.214 41.39C126.83 41.8633 126.299 42.1 125.619 42.1C125.312 42.1 125.05 42.045 124.834 41.935C124.62 41.8217 124.445 41.685 124.309 41.525C124.172 41.365 124.067 41.2117 123.994 41.065V43.61H123.064ZM125.444 41.38C125.87 41.38 126.219 41.2183 126.489 40.895C126.759 40.5683 126.894 40.0617 126.894 39.375C126.894 38.7883 126.77 38.3217 126.524 37.975C126.277 37.625 125.917 37.45 125.444 37.45C124.964 37.45 124.6 37.6283 124.354 37.985C124.107 38.3417 123.984 38.805 123.984 39.375C123.984 39.745 124.039 40.0817 124.149 40.385C124.259 40.6883 124.422 40.93 124.639 41.11C124.855 41.29 125.124 41.38 125.444 41.38ZM129.001 42V36.83H129.881V37.825C130.011 37.455 130.216 37.18 130.496 37C130.78 36.82 131.085 36.73 131.411 36.73C131.488 36.73 131.561 36.735 131.631 36.745C131.705 36.755 131.763 36.7717 131.806 36.795V37.69C131.756 37.6667 131.691 37.6517 131.611 37.645C131.535 37.635 131.47 37.63 131.416 37.63C131.006 37.6033 130.655 37.6817 130.361 37.865C130.068 38.0483 129.921 38.355 129.921 38.785V42H129.001ZM134.816 42.1C134.099 42.1 133.524 41.8717 133.091 41.415C132.658 40.9583 132.441 40.2983 132.441 39.435C132.441 38.895 132.533 38.4217 132.716 38.015C132.899 37.6083 133.168 37.2933 133.521 37.07C133.874 36.8433 134.306 36.73 134.816 36.73C135.529 36.73 136.099 36.9633 136.526 37.43C136.953 37.8967 137.166 38.565 137.166 39.435C137.166 39.9617 137.076 40.425 136.896 40.825C136.719 41.225 136.456 41.5383 136.106 41.765C135.759 41.9883 135.329 42.1 134.816 42.1ZM134.816 41.37C135.279 41.37 135.634 41.1967 135.881 40.85C136.128 40.5 136.251 40.0217 136.251 39.415C136.251 39.045 136.201 38.7133 136.101 38.42C136.004 38.1233 135.851 37.8883 135.641 37.715C135.431 37.5417 135.156 37.455 134.816 37.455C134.346 37.455 133.986 37.6283 133.736 37.975C133.486 38.3183 133.361 38.7983 133.361 39.415C133.361 39.7783 133.411 40.1083 133.511 40.405C133.611 40.7017 133.768 40.9367 133.981 41.11C134.194 41.2833 134.473 41.37 134.816 41.37ZM140.436 36.73C140.993 36.73 141.461 36.8883 141.841 37.205C142.221 37.5183 142.446 37.9383 142.516 38.465H141.696C141.65 38.195 141.518 37.9633 141.301 37.77C141.085 37.5733 140.798 37.475 140.441 37.475C140.001 37.475 139.641 37.635 139.361 37.955C139.085 38.275 138.946 38.765 138.946 39.425C138.946 40.0217 139.073 40.5 139.326 40.86C139.583 41.2167 139.96 41.395 140.456 41.395C140.81 41.395 141.095 41.295 141.311 41.095C141.528 40.895 141.658 40.665 141.701 40.405H142.506C142.44 40.925 142.215 41.3383 141.831 41.645C141.451 41.9483 140.986 42.1 140.436 42.1C139.97 42.1 139.558 41.9983 139.201 41.795C138.845 41.5917 138.565 41.2917 138.361 40.895C138.158 40.4983 138.056 40.0117 138.056 39.435C138.056 38.8983 138.148 38.4267 138.331 38.02C138.518 37.6133 138.788 37.2967 139.141 37.07C139.498 36.8433 139.93 36.73 140.436 36.73ZM144.427 39.63C144.427 39.9567 144.48 40.2533 144.587 40.52C144.697 40.7833 144.862 40.9933 145.082 41.15C145.305 41.3067 145.584 41.385 145.917 41.385C146.247 41.385 146.53 41.3083 146.767 41.155C147.007 41.0017 147.16 40.78 147.227 40.49H148.102C148.039 40.84 147.899 41.135 147.682 41.375C147.465 41.615 147.204 41.7967 146.897 41.92C146.59 42.04 146.27 42.1 145.937 42.1C145.454 42.1 145.029 41.995 144.662 41.785C144.295 41.575 144.009 41.2733 143.802 40.88C143.595 40.4867 143.492 40.015 143.492 39.465C143.492 38.9217 143.585 38.445 143.772 38.035C143.959 37.625 144.229 37.305 144.582 37.075C144.939 36.845 145.367 36.73 145.867 36.73C146.597 36.73 147.157 36.9617 147.547 37.425C147.937 37.885 148.132 38.5067 148.132 39.29V39.63H144.427ZM144.432 39.005H147.242C147.242 38.5617 147.129 38.1883 146.902 37.885C146.675 37.5817 146.329 37.43 145.862 37.43C145.539 37.43 145.27 37.5083 145.057 37.665C144.844 37.8183 144.685 38.0167 144.582 38.26C144.479 38.5 144.429 38.7483 144.432 39.005ZM151.198 42.1C150.834 42.1 150.499 42.0433 150.193 41.93C149.886 41.8167 149.629 41.6433 149.423 41.41C149.219 41.1733 149.093 40.8683 149.043 40.495H149.883C149.949 40.7983 150.101 41.0267 150.338 41.18C150.578 41.3333 150.863 41.41 151.193 41.41C151.539 41.41 151.819 41.345 152.033 41.215C152.246 41.085 152.353 40.885 152.353 40.615C152.353 40.2517 152.124 40.015 151.668 39.905L150.598 39.64C150.178 39.54 149.843 39.3833 149.593 39.17C149.346 38.9567 149.223 38.6583 149.223 38.275C149.219 37.8217 149.383 37.4517 149.713 37.165C150.043 36.875 150.536 36.73 151.193 36.73C151.753 36.73 152.204 36.8567 152.548 37.11C152.894 37.3633 153.074 37.7317 153.088 38.215H152.273C152.236 37.9683 152.124 37.7733 151.938 37.63C151.751 37.4833 151.499 37.41 151.183 37.41C150.853 37.41 150.584 37.4767 150.378 37.61C150.171 37.74 150.068 37.9433 150.068 38.22C150.068 38.4033 150.141 38.5483 150.288 38.655C150.434 38.7583 150.651 38.845 150.938 38.915L151.973 39.175C152.289 39.2583 152.536 39.3767 152.713 39.53C152.889 39.6833 153.013 39.8517 153.083 40.035C153.153 40.2183 153.188 40.395 153.188 40.565C153.188 41.0417 153.013 41.4167 152.663 41.69C152.313 41.9633 151.824 42.1 151.198 42.1ZM156.227 42.1C155.864 42.1 155.529 42.0433 155.222 41.93C154.915 41.8167 154.659 41.6433 154.452 41.41C154.249 41.1733 154.122 40.8683 154.072 40.495H154.912C154.979 40.7983 155.13 41.0267 155.367 41.18C155.607 41.3333 155.892 41.41 156.222 41.41C156.569 41.41 156.849 41.345 157.062 41.215C157.275 41.085 157.382 40.885 157.382 40.615C157.382 40.2517 157.154 40.015 156.697 39.905L155.627 39.64C155.207 39.54 154.872 39.3833 154.622 39.17C154.375 38.9567 154.252 38.6583 154.252 38.275C154.249 37.8217 154.412 37.4517 154.742 37.165C155.072 36.875 155.565 36.73 156.222 36.73C156.782 36.73 157.234 36.8567 157.577 37.11C157.924 37.3633 158.104 37.7317 158.117 38.215H157.302C157.265 37.9683 157.154 37.7733 156.967 37.63C156.78 37.4833 156.529 37.41 156.212 37.41C155.882 37.41 155.614 37.4767 155.407 37.61C155.2 37.74 155.097 37.9433 155.097 38.22C155.097 38.4033 155.17 38.5483 155.317 38.655C155.464 38.7583 155.68 38.845 155.967 38.915L157.002 39.175C157.319 39.2583 157.565 39.3767 157.742 39.53C157.919 39.6833 158.042 39.8517 158.112 40.035C158.182 40.2183 158.217 40.395 158.217 40.565C158.217 41.0417 158.042 41.4167 157.692 41.69C157.342 41.9633 156.854 42.1 156.227 42.1ZM160.169 39.63C160.169 39.9567 160.222 40.2533 160.329 40.52C160.439 40.7833 160.604 40.9933 160.824 41.15C161.047 41.3067 161.326 41.385 161.659 41.385C161.989 41.385 162.272 41.3083 162.509 41.155C162.749 41.0017 162.902 40.78 162.969 40.49H163.844C163.781 40.84 163.641 41.135 163.424 41.375C163.207 41.615 162.946 41.7967 162.639 41.92C162.332 42.04 162.012 42.1 161.679 42.1C161.196 42.1 160.771 41.995 160.404 41.785C160.037 41.575 159.751 41.2733 159.544 40.88C159.337 40.4867 159.234 40.015 159.234 39.465C159.234 38.9217 159.327 38.445 159.514 38.035C159.701 37.625 159.971 37.305 160.324 37.075C160.681 36.845 161.109 36.73 161.609 36.73C162.339 36.73 162.899 36.9617 163.289 37.425C163.679 37.885 163.874 38.5067 163.874 39.29V39.63H160.169ZM160.174 39.005H162.984C162.984 38.5617 162.871 38.1883 162.644 37.885C162.417 37.5817 162.071 37.43 161.604 37.43C161.281 37.43 161.012 37.5083 160.799 37.665C160.586 37.8183 160.427 38.0167 160.324 38.26C160.221 38.5 160.171 38.7483 160.174 39.005ZM167.009 42.1C166.336 42.1 165.802 41.87 165.409 41.41C165.019 40.95 164.824 40.2783 164.824 39.395C164.824 38.5883 165.001 37.9433 165.354 37.46C165.711 36.9733 166.239 36.73 166.939 36.73C167.266 36.73 167.544 36.7833 167.774 36.89C168.007 36.9967 168.194 37.1217 168.334 37.265C168.477 37.4083 168.577 37.5367 168.634 37.65V34.57H169.564V42H168.859L168.759 40.94C168.716 41.0733 168.634 41.2317 168.514 41.415C168.394 41.5983 168.214 41.7583 167.974 41.895C167.734 42.0317 167.412 42.1 167.009 42.1ZM167.174 41.39C167.697 41.39 168.071 41.2317 168.294 40.915C168.521 40.595 168.634 40.0733 168.634 39.35C168.627 38.7467 168.514 38.28 168.294 37.95C168.074 37.6167 167.707 37.45 167.194 37.45C166.771 37.45 166.424 37.6017 166.154 37.905C165.887 38.205 165.754 38.6867 165.754 39.35C165.754 39.9967 165.874 40.4983 166.114 40.855C166.357 41.2117 166.711 41.39 167.174 41.39ZM170.876 42V40.82H171.976V42H170.876ZM175.048 35.62V34.77H180.518V35.62H178.313V42H177.383V35.62H175.048ZM181.521 42V34.57H182.421V37.59C182.551 37.3767 182.749 37.1867 183.016 37.02C183.283 36.85 183.623 36.765 184.036 36.765C184.373 36.765 184.678 36.8283 184.951 36.955C185.224 37.0783 185.441 37.255 185.601 37.485C185.761 37.715 185.841 37.9883 185.841 38.305V42H184.916V38.49C184.916 38.18 184.809 37.9417 184.596 37.775C184.386 37.605 184.111 37.52 183.771 37.52C183.538 37.52 183.319 37.5583 183.116 37.635C182.916 37.7083 182.753 37.8217 182.626 37.975C182.503 38.125 182.441 38.3167 182.441 38.55V42H181.521ZM187.943 39.63C187.943 39.9567 187.996 40.2533 188.103 40.52C188.213 40.7833 188.378 40.9933 188.598 41.15C188.821 41.3067 189.099 41.385 189.433 41.385C189.763 41.385 190.046 41.3083 190.283 41.155C190.523 41.0017 190.676 40.78 190.743 40.49H191.618C191.554 40.84 191.414 41.135 191.198 41.375C190.981 41.615 190.719 41.7967 190.413 41.92C190.106 42.04 189.786 42.1 189.453 42.1C188.969 42.1 188.544 41.995 188.178 41.785C187.811 41.575 187.524 41.2733 187.318 40.88C187.111 40.4867 187.008 40.015 187.008 39.465C187.008 38.9217 187.101 38.445 187.288 38.035C187.474 37.625 187.744 37.305 188.098 37.075C188.454 36.845 188.883 36.73 189.383 36.73C190.113 36.73 190.673 36.9617 191.063 37.425C191.453 37.885 191.648 38.5067 191.648 39.29V39.63H187.943ZM187.948 39.005H190.758C190.758 38.5617 190.644 38.1883 190.418 37.885C190.191 37.5817 189.844 37.43 189.378 37.43C189.054 37.43 188.786 37.5083 188.573 37.665C188.359 37.8183 188.201 38.0167 188.098 38.26C187.994 38.5 187.944 38.7483 187.948 39.005ZM19.46 51.505H18.295V54.72C18.295 54.9967 18.3383 55.1667 18.425 55.23C18.515 55.29 18.6817 55.32 18.925 55.32H19.49V55.94C19.4233 55.9633 19.3267 55.9833 19.2 56C19.0733 56.0167 18.915 56.025 18.725 56.025C18.1883 56.025 17.8267 55.9167 17.64 55.7C17.4567 55.4833 17.365 55.1667 17.365 54.75V51.505H16.525V50.83H17.39L17.615 49.325H18.295V50.825H19.46V51.505ZM22.7067 56.1C21.9901 56.1 21.4151 55.8717 20.9817 55.415C20.5484 54.9583 20.3317 54.2983 20.3317 53.435C20.3317 52.895 20.4234 52.4217 20.6067 52.015C20.7901 51.6083 21.0584 51.2933 21.4117 51.07C21.7651 50.8433 22.1967 50.73 22.7067 50.73C23.4201 50.73 23.9901 50.9633 24.4167 51.43C24.8434 51.8967 25.0567 52.565 25.0567 53.435C25.0567 53.9617 24.9667 54.425 24.7867 54.825C24.6101 55.225 24.3467 55.5383 23.9967 55.765C23.6501 55.9883 23.2201 56.1 22.7067 56.1ZM22.7067 55.37C23.1701 55.37 23.5251 55.1967 23.7717 54.85C24.0184 54.5 24.1417 54.0217 24.1417 53.415C24.1417 53.045 24.0917 52.7133 23.9917 52.42C23.8951 52.1233 23.7417 51.8883 23.5317 51.715C23.3217 51.5417 23.0467 51.455 22.7067 51.455C22.2367 51.455 21.8767 51.6283 21.6267 51.975C21.3767 52.3183 21.2517 52.7983 21.2517 53.415C21.2517 53.7783 21.3017 54.1083 21.4017 54.405C21.5017 54.7017 21.6584 54.9367 21.8717 55.11C22.0851 55.2833 22.3634 55.37 22.7067 55.37ZM28.7276 51.505H27.5626V54.72C27.5626 54.9967 27.6059 55.1667 27.6926 55.23C27.7826 55.29 27.9492 55.32 28.1926 55.32H28.7576V55.94C28.6909 55.9633 28.5942 55.9833 28.4676 56C28.3409 56.0167 28.1826 56.025 27.9926 56.025C27.4559 56.025 27.0942 55.9167 26.9076 55.7C26.7242 55.4833 26.6326 55.1667 26.6326 54.75V51.505H25.7926V50.83H26.6576L26.8826 49.325H27.5626V50.825H28.7276V51.505ZM31.447 56.1C30.9436 56.1 30.5336 55.9683 30.217 55.705C29.9003 55.4417 29.742 55.0733 29.742 54.6C29.742 54.0267 29.942 53.6 30.342 53.32C30.742 53.04 31.3836 52.89 32.267 52.87L33.192 52.845V52.44C33.192 52.1233 33.0953 51.8733 32.902 51.69C32.712 51.5033 32.4186 51.41 32.022 51.41C31.7253 51.4133 31.4636 51.485 31.237 51.625C31.0103 51.7617 30.8653 51.9833 30.802 52.29H29.987C30.0136 51.7867 30.2103 51.4017 30.577 51.135C30.9436 50.865 31.4403 50.73 32.067 50.73C32.7403 50.73 33.2436 50.8717 33.577 51.155C33.9136 51.4383 34.082 51.85 34.082 52.39V56H33.292L33.227 55.03C33.0236 55.4333 32.7686 55.7133 32.462 55.87C32.1553 56.0233 31.817 56.1 31.447 56.1ZM31.727 55.435C31.957 55.435 32.1836 55.38 32.407 55.27C32.6336 55.16 32.8203 55.02 32.967 54.85C33.1136 54.6767 33.1886 54.4933 33.192 54.3V53.415L32.422 53.43C31.8286 53.44 31.3836 53.5283 31.087 53.695C30.7903 53.8583 30.642 54.13 30.642 54.51C30.642 54.8033 30.742 55.0317 30.942 55.195C31.1453 55.355 31.407 55.435 31.727 55.435ZM36.9665 56.065C36.5932 56.065 36.3132 56 36.1265 55.87C35.9398 55.7367 35.8148 55.565 35.7515 55.355C35.6915 55.1417 35.6615 54.9133 35.6615 54.67V48.57H36.5715V54.58C36.5715 54.8433 36.6215 55.04 36.7215 55.17C36.8248 55.2967 36.9682 55.3667 37.1515 55.38L37.4315 55.385V55.985C37.2648 56.0383 37.1098 56.065 36.9665 56.065ZM42.3747 56.1C41.8714 56.1 41.4614 55.9683 41.1447 55.705C40.828 55.4417 40.6697 55.0733 40.6697 54.6C40.6697 54.0267 40.8697 53.6 41.2697 53.32C41.6697 53.04 42.3114 52.89 43.1947 52.87L44.1197 52.845V52.44C44.1197 52.1233 44.023 51.8733 43.8297 51.69C43.6397 51.5033 43.3464 51.41 42.9497 51.41C42.653 51.4133 42.3914 51.485 42.1647 51.625C41.938 51.7617 41.793 51.9833 41.7297 52.29H40.9147C40.9414 51.7867 41.138 51.4017 41.5047 51.135C41.8714 50.865 42.368 50.73 42.9947 50.73C43.668 50.73 44.1714 50.8717 44.5047 51.155C44.8414 51.4383 45.0097 51.85 45.0097 52.39V56H44.2197L44.1547 55.03C43.9514 55.4333 43.6964 55.7133 43.3897 55.87C43.083 56.0233 42.7447 56.1 42.3747 56.1ZM42.6547 55.435C42.8847 55.435 43.1114 55.38 43.3347 55.27C43.5614 55.16 43.748 55.02 43.8947 54.85C44.0414 54.6767 44.1164 54.4933 44.1197 54.3V53.415L43.3497 53.43C42.7564 53.44 42.3114 53.5283 42.0147 53.695C41.718 53.8583 41.5697 54.13 41.5697 54.51C41.5697 54.8033 41.6697 55.0317 41.8697 55.195C42.073 55.355 42.3347 55.435 42.6547 55.435ZM46.5892 56V50.83H47.4792V51.58C47.6226 51.35 47.8176 51.1517 48.0642 50.985C48.3142 50.815 48.6409 50.73 49.0442 50.73C49.3276 50.73 49.6126 50.8017 49.8992 50.945C50.1859 51.0883 50.3976 51.2983 50.5342 51.575C50.6942 51.3217 50.9109 51.1183 51.1842 50.965C51.4576 50.8083 51.7659 50.73 52.1092 50.73C52.2892 50.73 52.4776 50.7583 52.6742 50.815C52.8709 50.8683 53.0542 50.965 53.2242 51.105C53.3942 51.2417 53.5309 51.4333 53.6342 51.68C53.7409 51.9233 53.7942 52.2367 53.7942 52.62V56H52.8642V52.71C52.8642 52.3967 52.8142 52.1533 52.7142 51.98C52.6142 51.8067 52.4826 51.6867 52.3192 51.62C52.1592 51.55 51.9876 51.515 51.8042 51.515C51.6442 51.515 51.4742 51.5467 51.2942 51.61C51.1142 51.6733 50.9609 51.78 50.8342 51.93C50.7076 52.08 50.6442 52.285 50.6442 52.545V56H49.7242V52.44C49.7242 52.2367 49.6692 52.0667 49.5592 51.93C49.4526 51.79 49.3176 51.6867 49.1542 51.62C48.9942 51.55 48.8342 51.515 48.6742 51.515C48.4976 51.515 48.3192 51.5517 48.1392 51.625C47.9626 51.695 47.8126 51.805 47.6892 51.955C47.5692 52.105 47.5092 52.3017 47.5092 52.545V56H46.5892ZM57.2966 56.1C56.5799 56.1 56.0049 55.8717 55.5716 55.415C55.1382 54.9583 54.9216 54.2983 54.9216 53.435C54.9216 52.895 55.0132 52.4217 55.1966 52.015C55.3799 51.6083 55.6482 51.2933 56.0016 51.07C56.3549 50.8433 56.7866 50.73 57.2966 50.73C58.0099 50.73 58.5799 50.9633 59.0066 51.43C59.4332 51.8967 59.6466 52.565 59.6466 53.435C59.6466 53.9617 59.5566 54.425 59.3766 54.825C59.1999 55.225 58.9366 55.5383 58.5866 55.765C58.2399 55.9883 57.8099 56.1 57.2966 56.1ZM57.2966 55.37C57.7599 55.37 58.1149 55.1967 58.3616 54.85C58.6082 54.5 58.7316 54.0217 58.7316 53.415C58.7316 53.045 58.6816 52.7133 58.5816 52.42C58.4849 52.1233 58.3316 51.8883 58.1216 51.715C57.9116 51.5417 57.6366 51.455 57.2966 51.455C56.8266 51.455 56.4666 51.6283 56.2166 51.975C55.9666 52.3183 55.8416 52.7983 55.8416 53.415C55.8416 53.7783 55.8916 54.1083 55.9916 54.405C56.0916 54.7017 56.2482 54.9367 56.4616 55.11C56.6749 55.2833 56.9532 55.37 57.2966 55.37ZM62.6689 56.1C62.3089 56.0967 61.9789 56.03 61.6789 55.9C61.3789 55.7667 61.1372 55.57 60.9539 55.31C60.7739 55.05 60.6839 54.7267 60.6839 54.34V50.83H61.6089V54.245C61.6089 54.5817 61.7122 54.855 61.9189 55.065C62.1289 55.275 62.4439 55.38 62.8639 55.38C63.2439 55.38 63.5489 55.2817 63.7789 55.085C64.0122 54.885 64.1289 54.5883 64.1289 54.195V50.83H65.0489V56H64.3139L64.2189 55.01C64.1256 55.4 63.9356 55.68 63.6489 55.85C63.3622 56.02 63.0356 56.1033 62.6689 56.1ZM66.5599 56V50.83H67.4549V51.58C67.5816 51.3633 67.7799 51.1717 68.0499 51.005C68.3199 50.8383 68.6616 50.755 69.0749 50.755C69.4016 50.755 69.7016 50.82 69.9749 50.95C70.2516 51.08 70.4716 51.2833 70.6349 51.56C70.8016 51.8333 70.8849 52.1867 70.8849 52.62V56H69.9599V52.71C69.9599 52.3067 69.8533 52.0083 69.6399 51.815C69.4299 51.6183 69.1566 51.52 68.8199 51.52C68.5866 51.52 68.3683 51.5583 68.1649 51.635C67.9616 51.7083 67.7966 51.8217 67.6699 51.975C67.5433 52.125 67.4799 52.315 67.4799 52.545V56H66.5599ZM74.7139 51.505H73.5489V54.72C73.5489 54.9967 73.5922 55.1667 73.6789 55.23C73.7689 55.29 73.9356 55.32 74.1789 55.32H74.7439V55.94C74.6772 55.9633 74.5806 55.9833 74.4539 56C74.3272 56.0167 74.1689 56.025 73.9789 56.025C73.4422 56.025 73.0806 55.9167 72.8939 55.7C72.7106 55.4833 72.6189 55.1667 72.6189 54.75V51.505H71.7789V50.83H72.6439L72.8689 49.325H73.5489V50.825H74.7139V51.505ZM80.0851 56.1C79.4117 56.1 78.8784 55.87 78.4851 55.41C78.0951 54.95 77.9001 54.2783 77.9001 53.395C77.9001 52.5883 78.0767 51.9433 78.4301 51.46C78.7867 50.9733 79.3151 50.73 80.0151 50.73C80.3417 50.73 80.6201 50.7833 80.8501 50.89C81.0834 50.9967 81.2701 51.1217 81.4101 51.265C81.5534 51.4083 81.6534 51.5367 81.7101 51.65V48.57H82.6401V56H81.9351L81.8351 54.94C81.7917 55.0733 81.7101 55.2317 81.5901 55.415C81.4701 55.5983 81.2901 55.7583 81.0501 55.895C80.8101 56.0317 80.4884 56.1 80.0851 56.1ZM80.2501 55.39C80.7734 55.39 81.1467 55.2317 81.3701 54.915C81.5967 54.595 81.7101 54.0733 81.7101 53.35C81.7034 52.7467 81.5901 52.28 81.3701 51.95C81.1501 51.6167 80.7834 51.45 80.2701 51.45C79.8467 51.45 79.5001 51.6017 79.2301 51.905C78.9634 52.205 78.8301 52.6867 78.8301 53.35C78.8301 53.9967 78.9501 54.4983 79.1901 54.855C79.4334 55.2117 79.7867 55.39 80.2501 55.39ZM84.8273 53.63C84.8273 53.9567 84.8807 54.2533 84.9873 54.52C85.0973 54.7833 85.2623 54.9933 85.4823 55.15C85.7057 55.3067 85.984 55.385 86.3173 55.385C86.6473 55.385 86.9307 55.3083 87.1673 55.155C87.4073 55.0017 87.5607 54.78 87.6273 54.49H88.5023C88.439 54.84 88.299 55.135 88.0823 55.375C87.8657 55.615 87.604 55.7967 87.2973 55.92C86.9907 56.04 86.6707 56.1 86.3373 56.1C85.854 56.1 85.429 55.995 85.0623 55.785C84.6957 55.575 84.409 55.2733 84.2023 54.88C83.9957 54.4867 83.8923 54.015 83.8923 53.465C83.8923 52.9217 83.9857 52.445 84.1723 52.035C84.359 51.625 84.629 51.305 84.9823 51.075C85.339 50.845 85.7673 50.73 86.2673 50.73C86.9973 50.73 87.5573 50.9617 87.9473 51.425C88.3373 51.885 88.5323 52.5067 88.5323 53.29V53.63H84.8273ZM84.8323 53.005H87.6423C87.6423 52.5617 87.529 52.1883 87.3023 51.885C87.0757 51.5817 86.729 51.43 86.2623 51.43C85.939 51.43 85.6707 51.5083 85.4573 51.665C85.244 51.8183 85.0857 52.0167 84.9823 52.26C84.879 52.5 84.829 52.7483 84.8323 53.005ZM91.6671 56.1C90.9938 56.1 90.4604 55.87 90.0671 55.41C89.6771 54.95 89.4821 54.2783 89.4821 53.395C89.4821 52.5883 89.6588 51.9433 90.0121 51.46C90.3688 50.9733 90.8971 50.73 91.5971 50.73C91.9238 50.73 92.2021 50.7833 92.4321 50.89C92.6654 50.9967 92.8521 51.1217 92.9921 51.265C93.1354 51.4083 93.2354 51.5367 93.2921 51.65V48.57H94.2221V56H93.5171L93.4171 54.94C93.3738 55.0733 93.2921 55.2317 93.1721 55.415C93.0521 55.5983 92.8721 55.7583 92.6321 55.895C92.3921 56.0317 92.0704 56.1 91.6671 56.1ZM91.8321 55.39C92.3554 55.39 92.7288 55.2317 92.9521 54.915C93.1788 54.595 93.2921 54.0733 93.2921 53.35C93.2854 52.7467 93.1721 52.28 92.9521 51.95C92.7321 51.6167 92.3654 51.45 91.8521 51.45C91.4288 51.45 91.0821 51.6017 90.8121 51.905C90.5454 52.205 90.4121 52.6867 90.4121 53.35C90.4121 53.9967 90.5321 54.4983 90.7721 54.855C91.0154 55.2117 91.3688 55.39 91.8321 55.39ZM97.6494 56.1C97.2894 56.0967 96.9594 56.03 96.6594 55.9C96.3594 55.7667 96.1177 55.57 95.9344 55.31C95.7544 55.05 95.6644 54.7267 95.6644 54.34V50.83H96.5894V54.245C96.5894 54.5817 96.6927 54.855 96.8994 55.065C97.1094 55.275 97.4244 55.38 97.8444 55.38C98.2244 55.38 98.5294 55.2817 98.7594 55.085C98.9927 54.885 99.1094 54.5883 99.1094 54.195V50.83H100.029V56H99.2944L99.1994 55.01C99.106 55.4 98.916 55.68 98.6294 55.85C98.3427 56.02 98.016 56.1033 97.6494 56.1ZM103.532 50.73C104.089 50.73 104.557 50.8883 104.937 51.205C105.317 51.5183 105.542 51.9383 105.612 52.465H104.792C104.745 52.195 104.614 51.9633 104.397 51.77C104.18 51.5733 103.894 51.475 103.537 51.475C103.097 51.475 102.737 51.635 102.457 51.955C102.18 52.275 102.042 52.765 102.042 53.425C102.042 54.0217 102.169 54.5 102.422 54.86C102.679 55.2167 103.055 55.395 103.552 55.395C103.905 55.395 104.19 55.295 104.407 55.095C104.624 54.895 104.754 54.665 104.797 54.405H105.602C105.535 54.925 105.31 55.3383 104.927 55.645C104.547 55.9483 104.082 56.1 103.532 56.1C103.065 56.1 102.654 55.9983 102.297 55.795C101.94 55.5917 101.66 55.2917 101.457 54.895C101.254 54.4983 101.152 54.0117 101.152 53.435C101.152 52.8983 101.244 52.4267 101.427 52.02C101.614 51.6133 101.884 51.2967 102.237 51.07C102.594 50.8433 103.025 50.73 103.532 50.73ZM109.323 51.505H108.158V54.72C108.158 54.9967 108.202 55.1667 108.288 55.23C108.378 55.29 108.545 55.32 108.788 55.32H109.353V55.94C109.287 55.9633 109.19 55.9833 109.063 56C108.937 56.0167 108.778 56.025 108.588 56.025C108.052 56.025 107.69 55.9167 107.503 55.7C107.32 55.4833 107.228 55.1667 107.228 54.75V51.505H106.388V50.83H107.253L107.478 49.325H108.158V50.825H109.323V51.505ZM111.175 53.63C111.175 53.9567 111.228 54.2533 111.335 54.52C111.445 54.7833 111.61 54.9933 111.83 55.15C112.053 55.3067 112.332 55.385 112.665 55.385C112.995 55.385 113.278 55.3083 113.515 55.155C113.755 55.0017 113.908 54.78 113.975 54.49H114.85C114.787 54.84 114.647 55.135 114.43 55.375C114.213 55.615 113.952 55.7967 113.645 55.92C113.338 56.04 113.018 56.1 112.685 56.1C112.202 56.1 111.777 55.995 111.41 55.785C111.043 55.575 110.757 55.2733 110.55 54.88C110.343 54.4867 110.24 54.015 110.24 53.465C110.24 52.9217 110.333 52.445 110.52 52.035C110.707 51.625 110.977 51.305 111.33 51.075C111.687 50.845 112.115 50.73 112.615 50.73C113.345 50.73 113.905 50.9617 114.295 51.425C114.685 51.885 114.88 52.5067 114.88 53.29V53.63H111.175ZM111.18 53.005H113.99C113.99 52.5617 113.877 52.1883 113.65 51.885C113.423 51.5817 113.077 51.43 112.61 51.43C112.287 51.43 112.018 51.5083 111.805 51.665C111.592 51.8183 111.433 52.0167 111.33 52.26C111.227 52.5 111.177 52.7483 111.18 53.005ZM118.015 56.1C117.341 56.1 116.808 55.87 116.415 55.41C116.025 54.95 115.83 54.2783 115.83 53.395C115.83 52.5883 116.006 51.9433 116.36 51.46C116.716 50.9733 117.245 50.73 117.945 50.73C118.271 50.73 118.55 50.7833 118.78 50.89C119.013 50.9967 119.2 51.1217 119.34 51.265C119.483 51.4083 119.583 51.5367 119.64 51.65V48.57H120.57V56H119.865L119.765 54.94C119.721 55.0733 119.64 55.2317 119.52 55.415C119.4 55.5983 119.22 55.7583 118.98 55.895C118.74 56.0317 118.418 56.1 118.015 56.1ZM118.18 55.39C118.703 55.39 119.076 55.2317 119.3 54.915C119.526 54.595 119.64 54.0733 119.64 53.35C119.633 52.7467 119.52 52.28 119.3 51.95C119.08 51.6167 118.713 51.45 118.2 51.45C117.776 51.45 117.43 51.6017 117.16 51.905C116.893 52.205 116.76 52.6867 116.76 53.35C116.76 53.9967 116.88 54.4983 117.12 54.855C117.363 55.2117 117.716 55.39 118.18 55.39ZM127.322 50.83V51.505H126.067V56H125.137V51.505H124.047V50.83H125.137V50.03C125.137 49.19 125.555 48.77 126.392 48.77H127.367L127.372 49.425H126.597C126.387 49.425 126.243 49.4817 126.167 49.595C126.09 49.7083 126.052 49.88 126.052 50.11V50.83H127.322ZM128.464 56V50.83H129.344V51.825C129.474 51.455 129.679 51.18 129.959 51C130.243 50.82 130.548 50.73 130.874 50.73C130.951 50.73 131.024 50.735 131.094 50.745C131.168 50.755 131.226 50.7717 131.269 50.795V51.69C131.219 51.6667 131.154 51.6517 131.074 51.645C130.998 51.635 130.933 51.63 130.879 51.63C130.469 51.6033 130.118 51.6817 129.824 51.865C129.531 52.0483 129.384 52.355 129.384 52.785V56H128.464ZM134.279 56.1C133.562 56.1 132.987 55.8717 132.554 55.415C132.121 54.9583 131.904 54.2983 131.904 53.435C131.904 52.895 131.996 52.4217 132.179 52.015C132.362 51.6083 132.631 51.2933 132.984 51.07C133.337 50.8433 133.769 50.73 134.279 50.73C134.992 50.73 135.562 50.9633 135.989 51.43C136.416 51.8967 136.629 52.565 136.629 53.435C136.629 53.9617 136.539 54.425 136.359 54.825C136.182 55.225 135.919 55.5383 135.569 55.765C135.222 55.9883 134.792 56.1 134.279 56.1ZM134.279 55.37C134.742 55.37 135.097 55.1967 135.344 54.85C135.591 54.5 135.714 54.0217 135.714 53.415C135.714 53.045 135.664 52.7133 135.564 52.42C135.467 52.1233 135.314 51.8883 135.104 51.715C134.894 51.5417 134.619 51.455 134.279 51.455C133.809 51.455 133.449 51.6283 133.199 51.975C132.949 52.3183 132.824 52.7983 132.824 53.415C132.824 53.7783 132.874 54.1083 132.974 54.405C133.074 54.7017 133.231 54.9367 133.444 55.11C133.657 55.2833 133.936 55.37 134.279 55.37ZM137.839 56V50.83H138.729V51.58C138.873 51.35 139.068 51.1517 139.314 50.985C139.564 50.815 139.891 50.73 140.294 50.73C140.578 50.73 140.863 50.8017 141.149 50.945C141.436 51.0883 141.648 51.2983 141.784 51.575C141.944 51.3217 142.161 51.1183 142.434 50.965C142.708 50.8083 143.016 50.73 143.359 50.73C143.539 50.73 143.728 50.7583 143.924 50.815C144.121 50.8683 144.304 50.965 144.474 51.105C144.644 51.2417 144.781 51.4333 144.884 51.68C144.991 51.9233 145.044 52.2367 145.044 52.62V56H144.114V52.71C144.114 52.3967 144.064 52.1533 143.964 51.98C143.864 51.8067 143.733 51.6867 143.569 51.62C143.409 51.55 143.238 51.515 143.054 51.515C142.894 51.515 142.724 51.5467 142.544 51.61C142.364 51.6733 142.211 51.78 142.084 51.93C141.958 52.08 141.894 52.285 141.894 52.545V56H140.974V52.44C140.974 52.2367 140.919 52.0667 140.809 51.93C140.703 51.79 140.568 51.6867 140.404 51.62C140.244 51.55 140.084 51.515 139.924 51.515C139.748 51.515 139.569 51.5517 139.389 51.625C139.213 51.695 139.063 51.805 138.939 51.955C138.819 52.105 138.759 52.3017 138.759 52.545V56H137.839ZM149.238 57.65C148.935 57.65 148.726 57.6283 148.613 57.585C148.5 57.5417 148.443 57.52 148.443 57.52V56.92L148.968 56.93C149.225 56.94 149.423 56.915 149.563 56.855C149.706 56.795 149.811 56.72 149.878 56.63C149.945 56.54 149.996 56.4517 150.033 56.365L150.213 55.875L148.193 50.83H149.128L150.653 54.82L152.168 50.83H153.073L150.893 56.39C150.693 56.8833 150.456 57.2167 150.183 57.39C149.91 57.5633 149.595 57.65 149.238 57.65ZM155.929 56.1C155.213 56.1 154.638 55.8717 154.204 55.415C153.771 54.9583 153.554 54.2983 153.554 53.435C153.554 52.895 153.646 52.4217 153.829 52.015C154.013 51.6083 154.281 51.2933 154.634 51.07C154.988 50.8433 155.419 50.73 155.929 50.73C156.643 50.73 157.213 50.9633 157.639 51.43C158.066 51.8967 158.279 52.565 158.279 53.435C158.279 53.9617 158.189 54.425 158.009 54.825C157.833 55.225 157.569 55.5383 157.219 55.765C156.873 55.9883 156.443 56.1 155.929 56.1ZM155.929 55.37C156.393 55.37 156.748 55.1967 156.994 54.85C157.241 54.5 157.364 54.0217 157.364 53.415C157.364 53.045 157.314 52.7133 157.214 52.42C157.118 52.1233 156.964 51.8883 156.754 51.715C156.544 51.5417 156.269 51.455 155.929 51.455C155.459 51.455 155.099 51.6283 154.849 51.975C154.599 52.3183 154.474 52.7983 154.474 53.415C154.474 53.7783 154.524 54.1083 154.624 54.405C154.724 54.7017 154.881 54.9367 155.094 55.11C155.308 55.2833 155.586 55.37 155.929 55.37ZM161.302 56.1C160.942 56.0967 160.612 56.03 160.312 55.9C160.012 55.7667 159.77 55.57 159.587 55.31C159.407 55.05 159.317 54.7267 159.317 54.34V50.83H160.242V54.245C160.242 54.5817 160.345 54.855 160.552 55.065C160.762 55.275 161.077 55.38 161.497 55.38C161.877 55.38 162.182 55.2817 162.412 55.085C162.645 54.885 162.762 54.5883 162.762 54.195V50.83H163.682V56H162.947L162.852 55.01C162.758 55.4 162.568 55.68 162.282 55.85C161.995 56.02 161.668 56.1033 161.302 56.1ZM165.193 56V50.83H166.073V51.825C166.203 51.455 166.408 51.18 166.688 51C166.971 50.82 167.276 50.73 167.603 50.73C167.679 50.73 167.753 50.735 167.823 50.745C167.896 50.755 167.954 50.7717 167.998 50.795V51.69C167.948 51.6667 167.883 51.6517 167.803 51.645C167.726 51.635 167.661 51.63 167.608 51.63C167.198 51.6033 166.846 51.6817 166.553 51.865C166.259 52.0483 166.113 52.355 166.113 52.785V56H165.193ZM18.195 70.1C17.6917 70.1 17.2817 69.9683 16.965 69.705C16.6483 69.4417 16.49 69.0733 16.49 68.6C16.49 68.0267 16.69 67.6 17.09 67.32C17.49 67.04 18.1317 66.89 19.015 66.87L19.94 66.845V66.44C19.94 66.1233 19.8433 65.8733 19.65 65.69C19.46 65.5033 19.1667 65.41 18.77 65.41C18.4733 65.4133 18.2117 65.485 17.985 65.625C17.7583 65.7617 17.6133 65.9833 17.55 66.29H16.735C16.7617 65.7867 16.9583 65.4017 17.325 65.135C17.6917 64.865 18.1883 64.73 18.815 64.73C19.4883 64.73 19.9917 64.8717 20.325 65.155C20.6617 65.4383 20.83 65.85 20.83 66.39V70H20.04L19.975 69.03C19.7717 69.4333 19.5167 69.7133 19.21 69.87C18.9033 70.0233 18.565 70.1 18.195 70.1ZM18.475 69.435C18.705 69.435 18.9317 69.38 19.155 69.27C19.3817 69.16 19.5683 69.02 19.715 68.85C19.8617 68.6767 19.9367 68.4933 19.94 68.3V67.415L19.17 67.43C18.5767 67.44 18.1317 67.5283 17.835 67.695C17.5383 67.8583 17.39 68.13 17.39 68.51C17.39 68.8033 17.49 69.0317 17.69 69.195C17.8933 69.355 18.155 69.435 18.475 69.435ZM24.4695 64.73C25.0262 64.73 25.4945 64.8883 25.8745 65.205C26.2545 65.5183 26.4795 65.9383 26.5495 66.465H25.7295C25.6829 66.195 25.5512 65.9633 25.3345 65.77C25.1179 65.5733 24.8312 65.475 24.4745 65.475C24.0345 65.475 23.6745 65.635 23.3945 65.955C23.1179 66.275 22.9795 66.765 22.9795 67.425C22.9795 68.0217 23.1062 68.5 23.3595 68.86C23.6162 69.2167 23.9929 69.395 24.4895 69.395C24.8429 69.395 25.1279 69.295 25.3445 69.095C25.5612 68.895 25.6912 68.665 25.7345 68.405H26.5395C26.4729 68.925 26.2479 69.3383 25.8645 69.645C25.4845 69.9483 25.0195 70.1 24.4695 70.1C24.0029 70.1 23.5912 69.9983 23.2345 69.795C22.8779 69.5917 22.5979 69.2917 22.3945 68.895C22.1912 68.4983 22.0895 68.0117 22.0895 67.435C22.0895 66.8983 22.1812 66.4267 22.3645 66.02C22.5512 65.6133 22.8212 65.2967 23.1745 65.07C23.5312 64.8433 23.9629 64.73 24.4695 64.73ZM29.8602 64.73C30.4168 64.73 30.8852 64.8883 31.2652 65.205C31.6452 65.5183 31.8702 65.9383 31.9402 66.465H31.1202C31.0735 66.195 30.9418 65.9633 30.7252 65.77C30.5085 65.5733 30.2218 65.475 29.8652 65.475C29.4252 65.475 29.0652 65.635 28.7852 65.955C28.5085 66.275 28.3702 66.765 28.3702 67.425C28.3702 68.0217 28.4968 68.5 28.7502 68.86C29.0068 69.2167 29.3835 69.395 29.8802 69.395C30.2335 69.395 30.5185 69.295 30.7352 69.095C30.9518 68.895 31.0818 68.665 31.1252 68.405H31.9302C31.8635 68.925 31.6385 69.3383 31.2552 69.645C30.8752 69.9483 30.4102 70.1 29.8602 70.1C29.3935 70.1 28.9818 69.9983 28.6252 69.795C28.2685 69.5917 27.9885 69.2917 27.7852 68.895C27.5818 68.4983 27.4802 68.0117 27.4802 67.435C27.4802 66.8983 27.5718 66.4267 27.7552 66.02C27.9418 65.6133 28.2118 65.2967 28.5652 65.07C28.9218 64.8433 29.3535 64.73 29.8602 64.73ZM35.2458 70.1C34.5291 70.1 33.9541 69.8717 33.5208 69.415C33.0874 68.9583 32.8708 68.2983 32.8708 67.435C32.8708 66.895 32.9624 66.4217 33.1458 66.015C33.3291 65.6083 33.5974 65.2933 33.9508 65.07C34.3041 64.8433 34.7358 64.73 35.2458 64.73C35.9591 64.73 36.5291 64.9633 36.9558 65.43C37.3824 65.8967 37.5958 66.565 37.5958 67.435C37.5958 67.9617 37.5058 68.425 37.3258 68.825C37.1491 69.225 36.8858 69.5383 36.5358 69.765C36.1891 69.9883 35.7591 70.1 35.2458 70.1ZM35.2458 69.37C35.7091 69.37 36.0641 69.1967 36.3108 68.85C36.5574 68.5 36.6808 68.0217 36.6808 67.415C36.6808 67.045 36.6308 66.7133 36.5308 66.42C36.4341 66.1233 36.2808 65.8883 36.0708 65.715C35.8608 65.5417 35.5858 65.455 35.2458 65.455C34.7758 65.455 34.4158 65.6283 34.1658 65.975C33.9158 66.3183 33.7908 66.7983 33.7908 67.415C33.7908 67.7783 33.8408 68.1083 33.9408 68.405C34.0408 68.7017 34.1974 68.9367 34.4108 69.11C34.6241 69.2833 34.9024 69.37 35.2458 69.37ZM40.6181 70.1C40.2581 70.0967 39.9281 70.03 39.6281 69.9C39.3281 69.7667 39.0865 69.57 38.9031 69.31C38.7231 69.05 38.6331 68.7267 38.6331 68.34V64.83H39.5581V68.245C39.5581 68.5817 39.6615 68.855 39.8681 69.065C40.0781 69.275 40.3931 69.38 40.8131 69.38C41.1931 69.38 41.4981 69.2817 41.7281 69.085C41.9615 68.885 42.0781 68.5883 42.0781 68.195V64.83H42.9981V70H42.2631L42.1681 69.01C42.0748 69.4 41.8848 69.68 41.5981 69.85C41.3115 70.02 40.9848 70.1033 40.6181 70.1ZM44.5091 70V64.83H45.4041V65.58C45.5308 65.3633 45.7291 65.1717 45.9991 65.005C46.2691 64.8383 46.6108 64.755 47.0241 64.755C47.3508 64.755 47.6508 64.82 47.9241 64.95C48.2008 65.08 48.4208 65.2833 48.5841 65.56C48.7508 65.8333 48.8341 66.1867 48.8341 66.62V70H47.9091V66.71C47.9091 66.3067 47.8025 66.0083 47.5891 65.815C47.3791 65.6183 47.1058 65.52 46.7691 65.52C46.5358 65.52 46.3175 65.5583 46.1141 65.635C45.9108 65.7083 45.7458 65.8217 45.6191 65.975C45.4925 66.125 45.4291 66.315 45.4291 66.545V70H44.5091ZM52.6631 65.505H51.4981V68.72C51.4981 68.9967 51.5415 69.1667 51.6281 69.23C51.7181 69.29 51.8848 69.32 52.1281 69.32H52.6931V69.94C52.6265 69.9633 52.5298 69.9833 52.4031 70C52.2765 70.0167 52.1181 70.025 51.9281 70.025C51.3915 70.025 51.0298 69.9167 50.8431 69.7C50.6598 69.4833 50.5681 69.1667 50.5681 68.75V65.505H49.7281V64.83H50.5931L50.8181 63.325H51.4981V64.825H52.6631V65.505ZM57.3163 62.775V63.735H56.3713V62.775H57.3163ZM57.2963 64.83V70H56.4013V64.83H57.2963ZM60.7582 70.1C60.3949 70.1 60.0599 70.0433 59.7532 69.93C59.4465 69.8167 59.1899 69.6433 58.9832 69.41C58.7799 69.1733 58.6532 68.8683 58.6032 68.495H59.4432C59.5099 68.7983 59.6615 69.0267 59.8982 69.18C60.1382 69.3333 60.4232 69.41 60.7532 69.41C61.0999 69.41 61.3799 69.345 61.5932 69.215C61.8065 69.085 61.9132 68.885 61.9132 68.615C61.9132 68.2517 61.6849 68.015 61.2282 67.905L60.1582 67.64C59.7382 67.54 59.4032 67.3833 59.1532 67.17C58.9065 66.9567 58.7832 66.6583 58.7832 66.275C58.7799 65.8217 58.9432 65.4517 59.2732 65.165C59.6032 64.875 60.0965 64.73 60.7532 64.73C61.3132 64.73 61.7649 64.8567 62.1082 65.11C62.4549 65.3633 62.6349 65.7317 62.6482 66.215H61.8332C61.7965 65.9683 61.6849 65.7733 61.4982 65.63C61.3115 65.4833 61.0599 65.41 60.7432 65.41C60.4132 65.41 60.1449 65.4767 59.9382 65.61C59.7315 65.74 59.6282 65.9433 59.6282 66.22C59.6282 66.4033 59.7015 66.5483 59.8482 66.655C59.9949 66.7583 60.2115 66.845 60.4982 66.915L61.5332 67.175C61.8499 67.2583 62.0965 67.3767 62.2732 67.53C62.4499 67.6833 62.5732 67.8517 62.6432 68.035C62.7132 68.2183 62.7482 68.395 62.7482 68.565C62.7482 69.0417 62.5732 69.4167 62.2232 69.69C61.8732 69.9633 61.3849 70.1 60.7582 70.1ZM71.9895 67.245C71.9895 67.8283 71.8945 68.335 71.7045 68.765C71.5145 69.1917 71.2062 69.5217 70.7795 69.755C70.3562 69.985 69.7945 70.1 69.0945 70.1C68.3912 70.1 67.8279 69.9833 67.4045 69.75C66.9812 69.5133 66.6745 69.1783 66.4845 68.745C66.2979 68.3117 66.2045 67.795 66.2045 67.195V62.77H67.6895V67.305C67.6895 67.845 67.8195 68.24 68.0795 68.49C68.3395 68.7367 68.6779 68.86 69.0945 68.86C69.5112 68.86 69.8512 68.7367 70.1145 68.49C70.3812 68.2433 70.5145 67.8483 70.5145 67.305V62.77H71.9895V67.245ZM76.1559 70.1C75.7992 70.1 75.4492 70.055 75.1059 69.965C74.7625 69.875 74.4475 69.74 74.1609 69.56C73.8775 69.38 73.6442 69.155 73.4609 68.885C73.2775 68.615 73.1675 68.2983 73.1309 67.935H74.6259C74.6992 68.2617 74.8725 68.5133 75.1459 68.69C75.4225 68.8667 75.7575 68.955 76.1509 68.955C76.5475 68.955 76.8892 68.88 77.1759 68.73C77.4659 68.58 77.6109 68.3517 77.6109 68.045C77.6109 67.7717 77.4942 67.5683 77.2609 67.435C77.0275 67.3017 76.7359 67.2 76.3859 67.13L75.1359 66.875C74.5892 66.7717 74.1559 66.555 73.8359 66.225C73.5159 65.895 73.3509 65.4517 73.3409 64.895C73.3375 64.4417 73.4575 64.05 73.7009 63.72C73.9475 63.3867 74.2809 63.13 74.7009 62.95C75.1242 62.77 75.5975 62.68 76.1209 62.68C76.7442 62.68 77.2675 62.7783 77.6909 62.975C78.1175 63.1683 78.4409 63.4317 78.6609 63.765C78.8842 64.095 78.9992 64.4633 79.0059 64.87H77.5409C77.5009 64.49 77.3525 64.2233 77.0959 64.07C76.8392 63.9167 76.5225 63.84 76.1459 63.84C75.7559 63.84 75.4459 63.9233 75.2159 64.09C74.9859 64.2533 74.8709 64.465 74.8709 64.725C74.8709 64.935 74.9392 65.105 75.0759 65.235C75.2159 65.365 75.4792 65.4717 75.8659 65.555L77.1059 65.81C77.5459 65.8967 77.8975 66.025 78.1609 66.195C78.4242 66.365 78.6209 66.5567 78.7509 66.77C78.8842 66.9833 78.9709 67.2017 79.0109 67.425C79.0542 67.645 79.0759 67.8483 79.0759 68.035C79.0759 68.425 78.9542 68.7767 78.7109 69.09C78.4675 69.4 78.1259 69.6467 77.6859 69.83C77.2492 70.01 76.7392 70.1 76.1559 70.1ZM84.5936 61.735H85.8586V62.73C86.2786 62.8033 86.6386 62.9417 86.9386 63.145C87.2419 63.3483 87.4736 63.5967 87.6336 63.89C87.7969 64.1833 87.8753 64.5017 87.8686 64.845L86.3936 64.87C86.3469 64.55 86.2403 64.2983 86.0736 64.115C85.9069 63.9317 85.6303 63.84 85.2436 63.84C84.8469 63.84 84.5336 63.9233 84.3036 64.09C84.0736 64.2533 83.9586 64.465 83.9586 64.725C83.9586 64.935 84.0286 65.1017 84.1686 65.225C84.3119 65.345 84.5803 65.4567 84.9736 65.56L86.1386 65.845C86.7953 66.0017 87.2686 66.2717 87.5586 66.655C87.8519 67.035 87.9986 67.495 87.9986 68.035C87.9986 68.5817 87.8036 69.035 87.4136 69.395C87.0236 69.7517 86.4953 69.9733 85.8286 70.06V70.955H84.5686V70.065C83.8853 69.985 83.3319 69.7733 82.9086 69.43C82.4886 69.0867 82.2453 68.5983 82.1786 67.965L83.6986 67.935C83.7753 68.265 83.9469 68.5167 84.2136 68.69C84.4803 68.86 84.8136 68.945 85.2136 68.945C85.5736 68.945 85.8686 68.86 86.0986 68.69C86.3319 68.52 86.4486 68.305 86.4486 68.045C86.4486 67.7783 86.3636 67.58 86.1936 67.45C86.0236 67.3167 85.7619 67.21 85.4086 67.13L84.2236 66.875C83.6703 66.765 83.2286 66.5467 82.8986 66.22C82.5686 65.8933 82.4003 65.4517 82.3936 64.895C82.3903 64.5017 82.4819 64.155 82.6686 63.855C82.8586 63.5517 83.1186 63.3033 83.4486 63.11C83.7819 62.9167 84.1636 62.7883 84.5936 62.725V61.735ZM90.2102 70V64.585H88.9202V63.76C89.5402 63.76 89.9869 63.6733 90.2602 63.5C90.5336 63.3233 90.6869 63.08 90.7202 62.77H91.6902V70H90.2102ZM95.9976 62.67C96.8576 62.67 97.5359 62.9917 98.0326 63.635C98.5292 64.2783 98.7776 65.2 98.7776 66.4C98.7776 67.5967 98.5309 68.515 98.0376 69.155C97.5476 69.7917 96.8676 70.11 95.9976 70.11C95.1209 70.11 94.4359 69.7917 93.9426 69.155C93.4526 68.5183 93.2076 67.6017 93.2076 66.405C93.2076 65.2017 93.4559 64.2783 93.9526 63.635C94.4526 62.9917 95.1342 62.67 95.9976 62.67ZM95.9976 68.915C96.4309 68.915 96.7459 68.7233 96.9426 68.34C97.1426 67.9567 97.2426 67.3117 97.2426 66.405C97.2426 65.4817 97.1409 64.82 96.9376 64.42C96.7342 64.02 96.4192 63.82 95.9926 63.82C95.5659 63.82 95.2476 64.0217 95.0376 64.425C94.8309 64.8283 94.7276 65.4883 94.7276 66.405C94.7276 67.305 94.8309 67.9483 95.0376 68.335C95.2442 68.7217 95.5642 68.915 95.9976 68.915ZM102.899 62.77H104.334V67.175H105.449V68.4H104.334V70H102.929L102.934 68.4H99.6038V67.2L102.899 62.77ZM100.954 67.175H102.934V64.525L100.954 67.175ZM106.231 70V68.41H107.831V70H106.231ZM111.527 70.11C111.073 70.11 110.652 70.0233 110.262 69.85C109.875 69.6767 109.558 69.4333 109.312 69.12C109.065 68.8033 108.927 68.4333 108.897 68.01H110.287C110.347 68.29 110.48 68.5183 110.687 68.695C110.893 68.8683 111.153 68.955 111.467 68.955C111.813 68.955 112.117 68.8733 112.377 68.71C112.64 68.5467 112.837 68.2867 112.967 67.93C113.1 67.5733 113.147 67.1067 113.107 66.53C112.963 66.7967 112.745 67.01 112.452 67.17C112.158 67.3267 111.81 67.405 111.407 67.405C110.917 67.405 110.482 67.3133 110.102 67.13C109.725 66.9433 109.428 66.68 109.212 66.34C108.998 65.9967 108.892 65.59 108.892 65.12C108.892 64.6467 109.005 64.225 109.232 63.855C109.458 63.485 109.775 63.195 110.182 62.985C110.588 62.775 111.065 62.67 111.612 62.67C112.225 62.67 112.753 62.8167 113.197 63.11C113.643 63.4 113.985 63.8133 114.222 64.35C114.462 64.8833 114.582 65.5117 114.582 66.235C114.582 67.5283 114.31 68.4983 113.767 69.145C113.223 69.7883 112.477 70.11 111.527 70.11ZM111.657 66.245C111.86 66.245 112.057 66.2 112.247 66.11C112.44 66.0167 112.598 65.9 112.722 65.76C112.845 65.62 112.907 65.475 112.907 65.325C112.91 64.8383 112.795 64.4583 112.562 64.185C112.332 63.9117 112.03 63.775 111.657 63.775C111.313 63.775 111.028 63.8933 110.802 64.13C110.575 64.3667 110.462 64.675 110.462 65.055C110.462 65.4317 110.572 65.725 110.792 65.935C111.012 66.1417 111.3 66.245 111.657 66.245ZM118.224 62.67C119.084 62.67 119.762 62.9917 120.259 63.635C120.756 64.2783 121.004 65.2 121.004 66.4C121.004 67.5967 120.757 68.515 120.264 69.155C119.774 69.7917 119.094 70.11 118.224 70.11C117.347 70.11 116.662 69.7917 116.169 69.155C115.679 68.5183 115.434 67.6017 115.434 66.405C115.434 65.2017 115.682 64.2783 116.179 63.635C116.679 62.9917 117.361 62.67 118.224 62.67ZM118.224 68.915C118.657 68.915 118.972 68.7233 119.169 68.34C119.369 67.9567 119.469 67.3117 119.469 66.405C119.469 65.4817 119.367 64.82 119.164 64.42C118.961 64.02 118.646 63.82 118.219 63.82C117.792 63.82 117.474 64.0217 117.264 64.425C117.057 64.8283 116.954 65.4883 116.954 66.405C116.954 67.305 117.057 67.9483 117.264 68.335C117.471 68.7217 117.791 68.915 118.224 68.915ZM121.989 70V68.82H123.089V70H121.989Z" fill="#36536B"/>
</g>
<defs>
<filter id="filter0_d_0_4927" x="-5" y="-5" width="248" height="117" filterUnits="userSpaceOnUse" color-interpolation-filters="sRGB">
<feFlood flood-opacity="0" result="BackgroundImageFix"/>
<feColorMatrix in="SourceAlpha" type="matrix" values="0 0 0 0 0 0 0 0 0 0 0 0 0 0 0 0 0 0 127 0" result="hardAlpha"/>
<feMorphology radius="10" operator="erode" in="SourceAlpha" result="effect1_dropShadow_0_4927"/>
<feOffset dx="10" dy="10"/>
<feGaussianBlur stdDeviation="12.5"/>
<feColorMatrix type="matrix" values="0 0 0 0 0.212302 0 0 0 0 0.32521 0 0 0 0 0.419299 0 0 0 0.25 0"/>
<feBlend mode="normal" in2="BackgroundImageFix" result="effect1_dropShadow_0_4927"/>
<feBlend mode="normal" in="SourceGraphic" in2="effect1_dropShadow_0_4927" result="shape"/>
</filter>
<clipPath id="clip0_0_4927">
<rect width="218" height="87" fill="white"/>
</clipPath>
<clipPath id="clip1_0_4927">
<rect width="187" height="11" fill="white" transform="translate(16 16)"/>
</clipPath>
</defs>
</svg>
