<svg width="419" height="660" viewBox="0 0 419 660" fill="none" xmlns="http://www.w3.org/2000/svg">
<g filter="url(#filter0_d_0_4934)">
<path fill-rule="evenodd" clip-rule="evenodd" d="M88.776 55.5695H280.009C298.35 55.5695 313.217 69.8048 313.217 87.365V522.635C313.217 540.195 298.35 554.431 280.009 554.431H88.776C70.4357 554.431 55.5679 540.195 55.5679 522.635V87.365C55.5679 69.8048 70.4357 55.5695 88.776 55.5695Z" fill="#213648"/>
</g>
<path opacity="0.595562" fill-rule="evenodd" clip-rule="evenodd" d="M280.749 55H87.9226C78.92 55.549 70.6174 59.6569 63.0146 67.3239C67.9041 63.0559 76.6249 57.3446 88.1546 57.3446C88.1546 57.3446 272.83 57.3446 280.517 57.3446C292.046 57.3446 300.767 63.0559 305.656 67.3239C298.054 59.6569 289.751 55.549 280.749 55Z" fill="url(#paint0_linear_0_4934)" fill-opacity="0.65"/>
<path opacity="0.75" fill-rule="evenodd" clip-rule="evenodd" d="M307.999 517.671V89.9818C307.999 78.5065 303.782 74.2644 301.266 71.5405C298.75 68.8165 298.643 67.4272 302.258 69.4838C305.873 71.5405 313.103 77.5305 313.103 89.9818V517.671C313.103 530.122 305.873 536.112 302.258 538.169C298.643 540.225 298.75 538.836 301.266 536.112C303.782 533.388 307.999 529.146 307.999 517.671Z" fill="url(#paint1_linear_0_4934)"/>
<path opacity="0.75" fill-rule="evenodd" clip-rule="evenodd" d="M60.672 517.671V89.9818C60.672 78.5065 64.8894 74.2644 67.4053 71.5405C69.9212 68.8165 70.0283 67.4272 66.4134 69.4838C62.7984 71.5405 55.568 77.5305 55.568 89.9818V517.671C55.568 530.122 62.7984 536.112 66.4134 538.169C70.0283 540.225 69.9212 538.836 67.4053 536.112C64.8894 533.388 60.672 529.146 60.672 517.671Z" fill="url(#paint2_linear_0_4934)"/>
<path fill-rule="evenodd" clip-rule="evenodd" d="M53 158.557C53 157.452 53.8954 156.557 55 156.557H55.9645C57.0691 156.557 57.9645 157.452 57.9645 158.557V218.907C57.9645 220.012 57.0691 220.907 55.9645 220.907H55C53.8954 220.907 53 220.012 53 218.907V158.557Z" fill="#2E423C"/>
<path fill-rule="evenodd" clip-rule="evenodd" d="M310.535 211.043C310.535 209.939 311.431 209.043 312.535 209.043H313.5C314.605 209.043 315.5 209.939 315.5 211.043V253.993C315.5 255.098 314.605 255.993 313.5 255.993H312.535C311.431 255.993 310.535 255.098 310.535 253.993V211.043Z" fill="#2E423C"/>
<path fill-rule="evenodd" clip-rule="evenodd" d="M161.676 67.4445L87.2698 67.4445C76.1653 67.4445 68.0742 75.0078 68.0742 84.8859V507.276C68.0742 520.156 80.5765 531.567 94.7134 531.567H274.046C287.664 531.567 300.686 520.067 300.686 507.276V86.0276C300.686 74.188 291.896 67.5149 281.49 67.4445L205.904 67.4445C205.618 67.4914 200.425 69.6262 198.231 75.0078C196.036 80.3893 191.621 84.6793 186.787 84.6793H181.172C178.874 84.6793 172.824 82.4496 169.76 75.0078C166.697 67.5659 161.963 67.4914 161.676 67.4445Z" fill="#36536B"/>
<mask id="mask0_0_4934" style="mask-type:alpha" maskUnits="userSpaceOnUse" x="68" y="67" width="233" height="465">
<path fill-rule="evenodd" clip-rule="evenodd" d="M161.676 67.4445L87.2698 67.4445C76.1653 67.4445 68.0742 75.0078 68.0742 84.8859V507.276C68.0742 520.156 80.5765 531.567 94.7134 531.567H274.046C287.664 531.567 300.686 520.067 300.686 507.276V86.0276C300.686 74.188 291.896 67.5149 281.49 67.4445L205.904 67.4445C205.618 67.4914 200.425 69.6262 198.231 75.0078C196.036 80.3893 191.621 84.6793 186.787 84.6793H181.172C178.874 84.6793 172.824 82.4496 169.76 75.0078C166.697 67.5659 161.963 67.4914 161.676 67.4445Z" fill="white"/>
</mask>
<g mask="url(#mask0_0_4934)">
</g>
<defs>
<filter id="filter0_d_0_4934" x="0.567871" y="0.569473" width="417.649" height="658.861" filterUnits="userSpaceOnUse" color-interpolation-filters="sRGB">
<feFlood flood-opacity="0" result="BackgroundImageFix"/>
<feColorMatrix in="SourceAlpha" type="matrix" values="0 0 0 0 0 0 0 0 0 0 0 0 0 0 0 0 0 0 127 0" result="hardAlpha"/>
<feOffset dx="25" dy="25"/>
<feGaussianBlur stdDeviation="40"/>
<feColorMatrix type="matrix" values="0 0 0 0 0.212302 0 0 0 0 0.32521 0 0 0 0 0.419299 0 0 0 0.300727 0"/>
<feBlend mode="normal" in2="BackgroundImageFix" result="effect1_dropShadow_0_4934"/>
<feBlend mode="normal" in="SourceGraphic" in2="effect1_dropShadow_0_4934" result="shape"/>
</filter>
<linearGradient id="paint0_linear_0_4934" x1="63.0146" y1="55" x2="63.0146" y2="67.3239" gradientUnits="userSpaceOnUse">
<stop stop-color="#454545"/>
<stop offset="0.226279" stop-color="#999999"/>
<stop offset="1" stop-color="white"/>
</linearGradient>
<linearGradient id="paint1_linear_0_4934" x1="313.103" y1="140.747" x2="303.642" y2="140.747" gradientUnits="userSpaceOnUse">
<stop stop-color="white" stop-opacity="0.01"/>
<stop offset="0.222178" stop-color="#BABABA"/>
<stop offset="0.54678" stop-color="white" stop-opacity="0.01"/>
<stop offset="1" stop-color="white" stop-opacity="0.01"/>
</linearGradient>
<linearGradient id="paint2_linear_0_4934" x1="55.568" y1="140.487" x2="65.044" y2="140.487" gradientUnits="userSpaceOnUse">
<stop stop-color="white" stop-opacity="0.01"/>
<stop offset="0.222178" stop-color="#BABABA"/>
<stop offset="0.54678" stop-color="white" stop-opacity="0.01"/>
<stop offset="1" stop-color="white" stop-opacity="0.01"/>
</linearGradient>
</defs>
</svg>
